<?xml version="1.0" encoding="UTF-8"?>
<svg width="120px" height="120px" viewBox="0 0 120 120" version="1.1" xmlns="http://www.w3.org/2000/svg" xmlns:xlink="http://www.w3.org/1999/xlink">
    <title>logo/icon-inset</title>
    <defs>
        <linearGradient x1="80.1491883%" y1="20.5698831%" x2="0%" y2="94.4792036%" id="linearGradient-1">
            <stop stop-color="#5FBFFF" offset="0%"></stop>
            <stop stop-color="#B090F5" offset="100%"></stop>
        </linearGradient>
        <linearGradient x1="0%" y1="94.0951088%" x2="112.081307%" y2="-8.91022163%" id="linearGradient-2">
            <stop stop-color="#68D7FA" offset="0%"></stop>
            <stop stop-color="#7EF1B3" offset="100%"></stop>
        </linearGradient>
    </defs>
    <g id="logo/icon-inset" stroke="none" stroke-width="1" fill="none" fill-rule="evenodd">
        <path d="M119.999928,59.9999281 C119.999928,93.1371737 93.1368144,119.999928 59.9999281,119.999928 C26.8630419,119.999928 -7.18562874e-05,93.1371737 -7.18562874e-05,59.9999281 C-7.18562874e-05,26.8630419 26.8630419,-7.18562874e-05 59.9999281,-7.18562874e-05 C93.1368144,-7.18562874e-05 119.999928,26.8630419 119.999928,59.9999281" id="Fill-1" fill="#FFFFFF"></path>
        <g id="logo/icon" transform="translate(11.000000, 11.000000)">
            <path d="M85.8789485,20.4498128 L81.0089636,25.3062972 C80.2718848,26.0413872 80.1665879,27.1875376 80.7377879,28.0571303 L80.7377879,28.0571303 C82.5217061,30.7755963 83.9432152,33.7019303 84.9759909,36.7649248 L84.9759909,36.7649248 L84.9889727,36.7523376 C86.3084303,40.661189 86.9910576,44.7854606 86.9910576,48.9496514 L86.9910576,48.9496514 C86.9910576,69.9860257 69.8305364,87.0998826 48.7376061,87.0998826 L48.7376061,87.0998826 C42.3898576,87.0998826 36.2923697,85.5793541 30.8093545,82.6612917 L30.8093545,82.6612917 L39.0629061,74.4303706 C42.1424818,75.5948624 45.4243576,76.1997651 48.7376061,76.1997651 L48.7376061,76.1997651 C63.8040879,76.1997651 76.0614485,63.9754789 76.0614485,48.9496514 L76.0614485,48.9496514 C76.0614485,48.0110092 76.0048333,47.0694899 75.9060273,46.1304881 L75.9060273,46.1304881 C75.5775152,42.9718312 74.7023242,39.909556 73.3280545,37.0749284 L73.3280545,37.0749284 C72.6717515,35.7216294 70.8737697,35.4137835 69.8078182,36.4772183 L69.8078182,36.4772183 L64.8646303,41.4074275 C64.3302121,41.940044 64.1095212,42.7107376 64.2815303,43.4447486 L64.2815303,43.4447486 L64.6962273,45.2148624 C64.9854333,46.4491229 65.1318394,47.7060404 65.1318394,48.9496514 L65.1318394,48.9496514 C65.1318394,57.9652917 57.7776394,65.2996477 48.7376061,65.2996477 L48.7376061,65.2996477 C45.8924242,65.2996477 43.0858273,64.5559266 40.6210848,63.1479633 L40.6210848,63.1479633 L38.4462697,61.9054312 C37.5898303,61.4163303 36.5119788,61.5594642 35.8142061,62.2553541 L35.8142061,62.2553541 L15.6610152,82.3530862 C14.7270455,83.2841761 14.8287364,84.8226862 15.8766576,85.6246679 L15.8766576,85.6246679 L18.8451667,87.8943119 C27.4903364,94.5058055 37.8278303,98 48.7376061,98 L48.7376061,98 C75.8569848,98 97.9203061,75.9958532 97.9203061,48.9496514 L97.9203061,48.9496514 C97.9203061,40.4108844 95.6838273,31.9987083 91.4524758,24.6226349 L91.4524758,24.6226349 L89.3216545,20.9087046 C88.910203,20.1912367 88.1698788,19.8111046 87.4212606,19.8111046 L87.4212606,19.8111046 C86.8684515,19.8111046 86.3113152,20.0182532 85.8789485,20.4498128" id="Fill-1" fill="url(#linearGradient-1)"></path>
            <path d="M49.3969,0.0794788991 C22.1592487,0.0794788991 0,22.0832661 0,49.1294679 L0,49.1294679 C0,57.6693138 2.24584043,66.0818495 6.49558913,73.456844 L6.49558913,73.456844 L8.63603696,77.1707743 C9.35459,78.4179817 11.07057,78.6456294 12.0937113,77.6296661 L12.0937113,77.6296661 L16.9841457,72.7739009 C17.724067,72.038811 17.8294596,70.8933798 17.2568626,70.0234275 L17.2568626,70.0234275 C15.4669991,67.3067596 14.0374987,64.3782679 12.9998704,61.3152734 L12.9998704,61.3152734 L12.9879187,61.3271413 C11.6627243,57.4182899 10.976767,53.294378 10.976767,49.1294679 L10.976767,49.1294679 C10.976767,28.0938128 28.2122613,10.9792367 49.3969,10.9792367 L49.3969,10.9792367 C55.771523,10.9792367 61.8955217,12.4997651 67.4027383,15.4181872 L67.4027383,15.4181872 L59.1136639,23.6491083 C56.0206987,22.4846165 52.7241917,21.8793541 49.3969,21.8793541 L49.3969,21.8793541 C34.2645496,21.8793541 21.9542583,34.104 21.9542583,49.1294679 L21.9542583,49.1294679 C21.9542583,49.5844037 21.9709183,50.0396991 21.9940974,50.4949945 L21.9940974,50.4949945 C22.001703,50.6428037 22.0114817,50.7898936 22.0216226,50.9373431 L22.0216226,50.9373431 C22.0455261,51.2926606 22.0763109,51.647978 22.1147013,52.0029358 L22.1147013,52.0029358 C22.4504365,55.1353394 23.3287083,58.1825101 24.7009852,61.0027523 L24.7009852,61.0027523 C25.3594174,62.356411 27.1659409,62.6635376 28.2361648,61.6001028 L28.2361648,61.6001028 L33.1993961,56.672411 C33.7357757,56.1394349 33.9570639,55.3687413 33.7846691,54.6350899 L33.7846691,54.6350899 L33.3681691,52.8642569 C33.07843,51.6314349 32.9313874,50.3752367 32.9313874,49.1294679 L32.9313874,49.1294679 C32.9313874,40.1141872 40.3175622,32.7794716 49.3969,32.7794716 L49.3969,32.7794716 C52.25409,32.7794716 55.0725274,33.5235523 57.5472617,34.931156 L57.5472617,34.931156 L59.7326191,36.1744073 C60.59242,36.6638679 61.67532,36.5200147 62.3764887,35.8244844 L62.3764887,35.8244844 L82.6165778,15.7263927 C83.5546083,14.7945835 83.4528374,13.256433 82.40036,12.454811 L82.40036,12.454811 L79.4185822,10.185167 C70.7351004,3.57403303 60.3533852,0.0794788991 49.3969,0.0794788991 Z" id="Fill-4" fill="url(#linearGradient-2)"></path>
        </g>
    </g>
</svg>