<svg width="32" height="32" viewBox="0 0 32 32" fill="none" xmlns="http://www.w3.org/2000/svg">
<g clip-path="url(#clip0_679_84)">
<path d="M15.9995 32C24.8361 32 31.9995 24.8366 31.9995 16C31.9995 7.16344 24.8361 0 15.9995 0C7.16296 0 -0.000488281 7.16344 -0.000488281 16C-0.000488281 24.8366 7.16296 32 15.9995 32Z" fill="#F2F3F6"/>
<path d="M16.78 27H16C9.92488 27 5 22.0751 5 16C5 9.92488 9.92488 5 16 5C22.0751 5 27 9.92488 27 16C27 16.544 26.9604 17.0791 26.884 17.6025H25.3443C25.4328 17.082 25.479 16.5466 25.479 16C25.479 10.7649 21.2351 6.52099 16 6.52099C10.7649 6.52099 6.52099 10.7649 6.52099 16C6.52099 21.2351 10.7649 25.479 16 25.479H21.6377C20.1981 26.3371 18.5464 26.8766 16.78 27Z" fill="#06070A"/>
<path d="M23.7451 23.8494H16C11.6649 23.8494 8.15063 20.3351 8.15063 16C8.15063 11.6649 11.6649 8.15062 16 8.15062C20.3351 8.15062 23.8494 11.6649 23.8494 16C23.8494 16.5487 23.793 17.0847 23.6855 17.6025H22.124C22.2573 17.0912 22.3284 16.5543 22.3284 16C22.3284 12.5049 19.4951 9.67161 16 9.67161C12.505 9.67161 9.67163 12.5049 9.67163 16C9.67163 19.4951 12.505 22.3284 16 22.3284H25.0317C24.6489 22.8737 24.2179 23.3827 23.7451 23.8494Z" fill="#06070A"/>
<path d="M16.0001 20.6987H25.9789C26.2093 20.2103 26.4049 19.7023 26.5624 19.1778H16.0001C14.245 19.1778 12.8223 17.755 12.8223 16C12.8223 14.2449 14.245 12.8222 16.0001 12.8222C17.7551 12.8222 19.1778 14.2449 19.1778 16C19.1778 16.5853 19.0202 17.1323 18.745 17.6025H20.4183C20.5998 17.1021 20.6988 16.5623 20.6988 16C20.6988 13.405 18.5951 11.3012 16.0001 11.3012C13.405 11.3012 11.3013 13.405 11.3013 16C11.3013 18.595 13.405 20.6987 16.0001 20.6987Z" fill="#06070A"/>
</g>
<defs>
<clipPath id="clip0_679_84">
<rect width="32" height="32" fill="white" transform="translate(-0.000488281)"/>
</clipPath>
</defs>
</svg>
