<svg width="32" height="32" viewBox="0 0 32 32" fill="none" xmlns="http://www.w3.org/2000/svg">
    <rect width="32" height="32" rx="16" fill="white" />
    <path
        d="M10.7282 27.8033C16.7606 27.8033 16.7606 27.7135 17.7835 27.4098C19.1202 27.013 14.0095 23.4754 10.7282 23.4754C7.44688 23.4754 4.78687 24.4442 4.78687 25.6393C4.78687 26.8344 7.44701 27.8033 10.7282 27.8033Z"
        fill="black" />
    <path
        d="M24.4261 9.4017L24.7035 9.70071L24.461 10.0287C16.5935 20.666 12.0614 25.4823 10.1385 24.8364C8.9672 24.4429 7.79258 23.2596 6.61794 21.5413C6.20506 20.9374 5.81735 20.3014 5.46473 19.6685C5.22991 19.2471 5.03117 18.8627 4.92797 18.6462C4.79633 18.37 4.74076 18.1999 4.69666 17.9765C4.69397 17.9628 4.69397 17.9628 4.69142 17.9496C4.67301 17.8548 4.66665 17.8248 4.65289 17.7729C4.41616 16.8807 4.29507 15.9563 4.29507 15.0164C4.29507 9.09517 9.09517 4.29507 15.0164 4.29507C16.8714 4.29507 18.6591 4.76719 20.2433 5.65343L20.2842 5.67902C21.5813 6.58208 22.961 7.82296 24.4261 9.4017ZM19.7421 6.50014C18.3089 5.70302 16.694 5.27868 15.0164 5.27868C9.6384 5.27868 5.27868 9.6384 5.27868 15.0164C5.27868 15.871 5.38866 16.7106 5.6036 17.5207C5.62486 17.6008 5.63447 17.6461 5.65702 17.7623C5.65938 17.7745 5.65938 17.7745 5.66166 17.786C5.69012 17.9302 5.72014 18.0221 5.81587 18.223C5.91001 18.4205 6.09919 18.7864 6.32397 19.1898C6.66288 19.7981 7.03532 20.409 7.42994 20.9862C8.49121 22.5387 9.54372 23.599 10.4517 23.904C11.6627 24.3108 16.2215 19.4849 23.4261 9.77324C22.1181 8.39261 20.8894 7.30156 19.7421 6.50014Z"
        fill="black" />
    <path
        d="M19.7421 6.50014C18.3089 5.70302 16.694 5.27869 15.0164 5.27869C9.63841 5.27869 5.27869 9.63841 5.27869 15.0164C5.27869 15.871 5.38866 16.7106 5.60361 17.5207C5.62486 17.6008 5.63447 17.6461 5.65702 17.7623C5.65939 17.7745 5.65939 17.7745 5.66167 17.786C5.69012 17.9302 5.72014 18.0222 5.81587 18.223C5.91001 18.4205 6.0992 18.7864 6.32397 19.1898C6.66289 19.7981 7.03533 20.409 7.42995 20.9862C8.49122 22.5387 9.54372 23.599 10.4517 23.904C11.6627 24.3108 16.2215 19.4849 23.4261 9.77325C22.1181 8.39262 20.8894 7.30157 19.7421 6.50014Z"
        fill="#EC1C79" />
    <path
        d="M16.9836 27.7049C11.0624 27.7049 6.2623 22.9048 6.2623 16.9836C6.2623 11.0624 11.0624 6.26228 16.9836 6.26228C22.9048 6.26228 27.7049 11.0624 27.7049 16.9836C27.7049 22.9048 22.9048 27.7049 16.9836 27.7049ZM16.9836 26.7213C22.3616 26.7213 26.7213 22.3616 26.7213 16.9836C26.7213 11.6056 22.3616 7.24589 16.9836 7.24589C11.6056 7.24589 7.24591 11.6056 7.24591 16.9836C7.24591 22.3616 11.6056 26.7213 16.9836 26.7213Z"
        fill="black" />
    <path
        d="M16.9836 26.7213C22.3616 26.7213 26.7213 22.3616 26.7213 16.9836C26.7213 11.6056 22.3616 7.2459 16.9836 7.2459C11.6056 7.2459 7.24588 11.6056 7.24588 16.9836C7.24588 22.3616 11.6056 26.7213 16.9836 26.7213Z"
        fill="white" />
    <path fill-rule="evenodd" clip-rule="evenodd"
        d="M9.69941 18.9784L8.41049 15.0951H9.53967L10.2117 17.3259L10.9553 15.0841H11.8751L12.6188 17.3259L13.2908 15.0951H14.3979L13.109 18.9784H12.1781L11.4014 16.7586L10.6303 18.9784H9.69941ZM14.822 18.9508V15.0951H17.9231V16.0039H15.8796V16.5878H17.7304V17.4306H15.8796V18.042H17.9507V18.9508H14.822ZM19.4379 18.9508V16.0315H18.2812V15.0951H21.6632V16.0315H20.5065V18.9508H19.4379ZM22.1314 18.9508V15.0951H23.2V16.5382H24.5715V15.0951H25.6401V18.9508H24.5715V17.4856H23.2V18.9508H22.1314Z"
        fill="black" />
    <path
        d="M4.934 13.9353C4.66191 13.7992 4.55162 13.4684 4.68767 13.1963C4.82371 12.9242 5.15458 12.8139 5.42667 12.95L7.00044 13.7368C7.27253 13.8729 7.38282 14.2037 7.24677 14.4758C7.11073 14.7479 6.77986 14.8582 6.50777 14.7222L4.934 13.9353Z"
        fill="black" />
    <path
        d="M4.75279 16.5448C4.47657 16.4173 4.356 16.09 4.48347 15.8138C4.61095 15.5376 4.9382 15.417 5.21441 15.5445L6.78818 16.2708C7.0644 16.3983 7.18497 16.7256 7.0575 17.0018C6.93002 17.278 6.60277 17.3986 6.32656 17.2711L4.75279 16.5448Z"
        fill="black" />
</svg>
    