<svg width="32" height="32" viewBox="0 0 32 32" fill="none" xmlns="http://www.w3.org/2000/svg">
<g clip-path="url(#clip0_679_502)">
<path d="M15.9995 32C24.8361 32 31.9995 24.8366 31.9995 16C31.9995 7.16344 24.8361 0 15.9995 0C7.16296 0 -0.000488281 7.16344 -0.000488281 16C-0.000488281 24.8366 7.16296 32 15.9995 32Z" fill="#0A0A0A"/>
<path d="M18.9926 17.409C20.1928 16.7134 20.9995 15.4144 20.9995 13.9264V12.2196C20.9995 9.45816 18.7615 7.21902 16 7.21902C13.2386 7.21902 10.9995 9.45816 10.9995 12.2196V14.0487H14.0476V14.1676C13.6776 14.2598 13.3275 14.4032 13.0064 14.591C11.8063 15.2866 10.9995 16.5856 10.9995 18.0736V19.7804C10.9995 22.5418 13.2375 24.781 15.999 24.781C18.7604 24.781 20.9995 22.5418 20.9995 19.7804V17.9513H17.9514V17.8324C18.3214 17.7402 18.6715 17.5968 18.9926 17.409ZM16.9757 20.3905C16.9757 20.9294 16.539 21.3661 16 21.3661C15.4611 21.3661 15.0244 20.9294 15.0244 20.3905V11.6095C15.0244 11.0706 15.4611 10.6338 16 10.6338C16.539 10.6338 16.9757 11.0706 16.9757 11.6095V20.3905Z" fill="#F2F2F2"/>
</g>
<defs>
<clipPath id="clip0_679_502">
<rect width="32" height="32" fill="white" transform="translate(-0.000488281)"/>
</clipPath>
</defs>
</svg>
